<svg width="443" height="988" viewBox="0 0 443 988" fill="none" xmlns="http://www.w3.org/2000/svg">
<path d="M48.0306 17.4046C21.5239 33.8774 5.04041 55.2836 11.2135 65.2169C17.3866 75.1502 43.8787 69.8491 70.3854 53.3763C85.2405 44.1445 95.1646 33.2519 92.5515 29.047C89.9383 24.8421 75.7774 28.9173 60.9223 38.149C34.4156 54.6218 17.9321 76.028 24.1052 85.9613C30.2783 95.8946 56.7705 90.5937 83.2773 74.1209C98.1324 64.8892 108.056 53.9964 105.443 49.7914C102.83 45.5865 88.6691 49.6616 73.814 58.8934C47.3073 75.3662 30.8545 96.8218 37.0655 106.816C43.2764 116.81 69.7993 111.559 96.3061 95.0859C111.161 85.8542 121.085 74.9614 118.472 70.7564C115.859 66.5513 101.698 70.627 86.8431 79.8588C60.3363 96.3315 43.8526 117.737 50.0258 127.671C56.1989 137.604 82.6907 132.303 109.198 115.83C124.053 106.598 133.977 95.706 131.364 91.501C128.751 87.2959 114.59 91.3709 99.7345 100.603C73.2277 117.075 56.7445 138.482 62.9176 148.415C69.0907 158.349 95.5825 153.047 122.089 136.574C136.944 127.343 146.868 116.45 144.256 112.246C141.642 108.04 127.481 112.115 112.626 121.347C86.1195 137.82 69.6363 159.227 75.809 169.159C81.9822 179.093 108.474 173.792 134.981 157.319C149.836 148.087 159.76 137.194 157.147 132.989C154.534 128.785 140.373 132.86 125.518 142.092C99.0114 158.565 82.5584 180.02 88.7693 190.014C94.9802 200.008 121.503 194.757 148.01 178.284" stroke="white" stroke-width="3" stroke-linecap="round"/>
<path d="M297.591 903.136C314.116 919.714 313.982 946.696 297.292 963.422C283.949 976.793 262.404 976.888 249.193 963.635C238.622 953.03 238.708 935.758 249.385 925.059C257.934 916.492 271.71 916.431 280.174 924.922C286.945 931.715 286.89 942.761 280.051 949.614C274.587 955.089 265.76 955.128 260.35 949.701C256.018 945.355 256.053 938.281 260.429 933.896C263.932 930.386 269.571 930.361 273.039 933.84C275.809 936.619 275.787 941.152 272.989 943.956" stroke="white" stroke-width="3" stroke-linecap="round"/>
<path d="M278.059 373C290.356 378.208 269.298 427.933 281.596 433.141C293.893 438.348 314.951 388.623 327.248 393.831C339.546 399.039 318.488 448.764 330.757 453.959C343.055 459.167 364.112 409.442 376.381 414.638C388.678 419.846 367.621 469.571 379.889 474.766C392.187 479.974 413.244 430.249 425.541 435.456C437.839 440.664 416.781 490.389 429.079 495.597C441.376 500.805 462.433 451.08 474.731 456.287C487.029 461.495 465.971 511.22 478.269 516.428C490.566 521.636 511.623 471.911 523.921 477.118" stroke="white" stroke-width="3" stroke-miterlimit="10" stroke-linecap="round"/>
</svg>
