<svg width="233" height="106" viewBox="0 0 233 106" fill="none" xmlns="http://www.w3.org/2000/svg">
<path d="M25.1841 65.952C25.1361 65.872 24.9681 65.752 24.6801 65.592C24.3921 65.416 24.0321 65.232 23.6001 65.04C23.1681 64.848 22.6961 64.68 22.1841 64.536C21.6721 64.392 21.1601 64.32 20.6481 64.32C19.9761 64.32 19.4561 64.44 19.0881 64.68C18.7201 64.904 18.5361 65.256 18.5361 65.736C18.5361 66.12 18.6721 66.424 18.9441 66.648C19.2321 66.872 19.6401 67.072 20.1681 67.248C20.6961 67.408 21.3441 67.6 22.1121 67.824C23.2001 68.112 24.1441 68.464 24.9441 68.88C25.7441 69.28 26.3521 69.8 26.7681 70.44C27.2001 71.08 27.4161 71.928 27.4161 72.984C27.4161 73.944 27.2401 74.76 26.8881 75.432C26.5361 76.088 26.0561 76.624 25.4481 77.04C24.8561 77.44 24.1761 77.736 23.4081 77.928C22.6401 78.104 21.8481 78.192 21.0321 78.192C20.2001 78.192 19.3441 78.112 18.4641 77.952C17.6001 77.776 16.7681 77.536 15.9681 77.232C15.1681 76.912 14.4321 76.528 13.7601 76.08L15.4881 72.648C15.5521 72.728 15.7601 72.88 16.1121 73.104C16.4641 73.312 16.8961 73.536 17.4081 73.776C17.9361 74 18.5201 74.2 19.1601 74.376C19.8001 74.552 20.4481 74.64 21.1041 74.64C21.8081 74.64 22.3281 74.528 22.6641 74.304C23.0161 74.08 23.1921 73.768 23.1921 73.368C23.1921 72.936 23.0081 72.6 22.6401 72.36C22.2881 72.12 21.8001 71.904 21.1761 71.712C20.5681 71.52 19.8641 71.304 19.0641 71.064C18.0241 70.744 17.1601 70.384 16.4721 69.984C15.8001 69.584 15.2961 69.096 14.9601 68.52C14.6401 67.944 14.4801 67.224 14.4801 66.36C14.4801 65.16 14.7601 64.152 15.3201 63.336C15.8961 62.504 16.6641 61.88 17.6241 61.464C18.5841 61.032 19.6321 60.816 20.7681 60.816C21.5681 60.816 22.3361 60.912 23.0721 61.104C23.8241 61.296 24.5201 61.536 25.1601 61.824C25.8161 62.112 26.4001 62.4 26.9121 62.688L25.1841 65.952ZM42.7098 64.416H37.5258V78H33.5898V64.416H28.3818V60.96H42.7098V64.416ZM51.952 78.144C50.592 78.144 49.432 77.92 48.472 77.472C47.512 77.008 46.728 76.384 46.12 75.6C45.528 74.8 45.088 73.896 44.8 72.888C44.528 71.864 44.392 70.792 44.392 69.672V60.96H48.328V69.672C48.328 70.312 48.392 70.936 48.52 71.544C48.648 72.136 48.856 72.664 49.144 73.128C49.432 73.592 49.8 73.96 50.248 74.232C50.712 74.504 51.28 74.64 51.952 74.64C52.64 74.64 53.216 74.504 53.68 74.232C54.144 73.944 54.512 73.568 54.784 73.104C55.056 72.624 55.256 72.088 55.384 71.496C55.512 70.904 55.576 70.296 55.576 69.672V60.96H59.512V69.672C59.512 70.856 59.36 71.96 59.056 72.984C58.768 74.008 58.32 74.912 57.712 75.696C57.104 76.464 56.32 77.064 55.36 77.496C54.416 77.928 53.28 78.144 51.952 78.144ZM62.5617 78V60.96H68.9217C70.7937 60.96 72.3537 61.344 73.6017 62.112C74.8657 62.864 75.8177 63.888 76.4577 65.184C77.0977 66.464 77.4177 67.888 77.4177 69.456C77.4177 71.184 77.0657 72.688 76.3617 73.968C75.6577 75.248 74.6657 76.24 73.3857 76.944C72.1217 77.648 70.6337 78 68.9217 78H62.5617ZM73.4097 69.456C73.4097 68.464 73.2337 67.592 72.8817 66.84C72.5297 66.072 72.0177 65.48 71.3457 65.064C70.6737 64.632 69.8657 64.416 68.9217 64.416H66.4977V74.544H68.9217C69.8817 74.544 70.6897 74.328 71.3457 73.896C72.0177 73.448 72.5297 72.84 72.8817 72.072C73.2337 71.288 73.4097 70.416 73.4097 69.456ZM91.7174 74.544V78H79.7414V60.96H91.5014V64.416H83.6774V67.728H90.3974V70.92H83.6774V74.544H91.7174ZM98.0446 68.256V78H94.1086V60.96H97.2286L105.125 70.992V60.96H109.061V78H105.845L98.0446 68.256ZM125.304 64.416H120.12V78H116.184V64.416H110.976V60.96H125.304V64.416ZM136.896 60.984H140.52L142.296 66.432L144.072 60.984H147.72L144.816 68.904L146.544 73.44L150.816 60.96H155.112L148.464 78H145.056L142.296 71.328L139.56 78H136.128L129.504 60.96H133.776L138.072 73.44L139.752 68.904L136.896 60.984ZM163.401 78.144C162.121 78.144 160.961 77.904 159.921 77.424C158.897 76.928 158.009 76.272 157.257 75.456C156.521 74.624 155.953 73.696 155.553 72.672C155.153 71.632 154.953 70.56 154.953 69.456C154.953 68.32 155.161 67.24 155.577 66.216C156.009 65.192 156.601 64.28 157.353 63.48C158.121 62.664 159.025 62.024 160.065 61.56C161.105 61.096 162.241 60.864 163.473 60.864C164.737 60.864 165.881 61.112 166.905 61.608C167.945 62.088 168.833 62.744 169.569 63.576C170.321 64.408 170.897 65.344 171.297 66.384C171.697 67.408 171.897 68.456 171.897 69.528C171.897 70.664 171.689 71.744 171.273 72.768C170.857 73.792 170.265 74.712 169.497 75.528C168.729 76.328 167.825 76.968 166.785 77.448C165.761 77.912 164.633 78.144 163.401 78.144ZM158.961 69.504C158.961 70.16 159.057 70.8 159.249 71.424C159.441 72.032 159.721 72.576 160.089 73.056C160.473 73.536 160.945 73.92 161.505 74.208C162.065 74.496 162.705 74.64 163.425 74.64C164.177 74.64 164.833 74.496 165.393 74.208C165.953 73.904 166.417 73.504 166.785 73.008C167.153 72.512 167.425 71.96 167.601 71.352C167.793 70.728 167.889 70.096 167.889 69.456C167.889 68.8 167.793 68.168 167.601 67.56C167.409 66.952 167.121 66.408 166.737 65.928C166.353 65.432 165.881 65.048 165.321 64.776C164.761 64.504 164.129 64.368 163.425 64.368C162.673 64.368 162.017 64.512 161.457 64.8C160.913 65.088 160.449 65.48 160.065 65.976C159.697 66.456 159.417 67.008 159.225 67.632C159.049 68.24 158.961 68.864 158.961 69.504ZM174.171 78V60.96H181.851C182.651 60.96 183.387 61.128 184.059 61.464C184.747 61.784 185.339 62.224 185.835 62.784C186.331 63.328 186.715 63.944 186.987 64.632C187.275 65.32 187.419 66.016 187.419 66.72C187.419 67.424 187.307 68.096 187.083 68.736C186.859 69.36 186.539 69.928 186.123 70.44C185.707 70.936 185.211 71.344 184.635 71.664L188.379 78H184.035L180.771 72.504H178.107V78H174.171ZM178.107 69.072H181.707C182.027 69.072 182.307 68.976 182.547 68.784C182.803 68.576 183.011 68.296 183.171 67.944C183.331 67.592 183.411 67.184 183.411 66.72C183.411 66.256 183.315 65.856 183.123 65.52C182.947 65.168 182.723 64.896 182.451 64.704C182.179 64.512 181.891 64.416 181.587 64.416H178.107V69.072ZM190.249 78V60.96H194.185V68.304L200.425 60.96H204.841L198.457 68.568L205.273 78H200.761L195.961 71.16L194.185 72.984V78H190.249ZM216.762 65.952C216.714 65.872 216.546 65.752 216.258 65.592C215.97 65.416 215.61 65.232 215.178 65.04C214.746 64.848 214.274 64.68 213.762 64.536C213.25 64.392 212.738 64.32 212.226 64.32C211.554 64.32 211.034 64.44 210.666 64.68C210.298 64.904 210.114 65.256 210.114 65.736C210.114 66.12 210.25 66.424 210.522 66.648C210.81 66.872 211.218 67.072 211.746 67.248C212.274 67.408 212.922 67.6 213.69 67.824C214.778 68.112 215.722 68.464 216.522 68.88C217.322 69.28 217.93 69.8 218.346 70.44C218.778 71.08 218.994 71.928 218.994 72.984C218.994 73.944 218.818 74.76 218.466 75.432C218.114 76.088 217.634 76.624 217.026 77.04C216.434 77.44 215.754 77.736 214.986 77.928C214.218 78.104 213.426 78.192 212.61 78.192C211.778 78.192 210.922 78.112 210.042 77.952C209.178 77.776 208.346 77.536 207.546 77.232C206.746 76.912 206.01 76.528 205.338 76.08L207.066 72.648C207.13 72.728 207.338 72.88 207.69 73.104C208.042 73.312 208.474 73.536 208.986 73.776C209.514 74 210.098 74.2 210.738 74.376C211.378 74.552 212.026 74.64 212.682 74.64C213.386 74.64 213.906 74.528 214.242 74.304C214.594 74.08 214.77 73.768 214.77 73.368C214.77 72.936 214.586 72.6 214.218 72.36C213.866 72.12 213.378 71.904 212.754 71.712C212.146 71.52 211.442 71.304 210.642 71.064C209.602 70.744 208.738 70.384 208.05 69.984C207.378 69.584 206.874 69.096 206.538 68.52C206.218 67.944 206.058 67.224 206.058 66.36C206.058 65.16 206.338 64.152 206.898 63.336C207.474 62.504 208.242 61.88 209.202 61.464C210.162 61.032 211.21 60.816 212.346 60.816C213.146 60.816 213.914 60.912 214.65 61.104C215.402 61.296 216.098 61.536 216.738 61.824C217.394 62.112 217.978 62.4 218.49 62.688L216.762 65.952Z" fill="white"/>
<path d="M8.01687 94.2727V103H6.96005V95.2102H2.56232V103H1.5055V94.2727H8.01687ZM10.0123 105.455V96.4545H10.9838V97.4943H11.1032C11.177 97.3807 11.2793 97.2358 11.41 97.0597C11.5435 96.8807 11.7338 96.7216 11.981 96.5824C12.231 96.4403 12.5691 96.3693 12.9952 96.3693C13.5463 96.3693 14.0321 96.5071 14.4526 96.7827C14.873 97.0582 15.2012 97.4489 15.437 97.9545C15.6728 98.4602 15.7907 99.0568 15.7907 99.7443C15.7907 100.438 15.6728 101.038 15.437 101.547C15.2012 102.053 14.8745 102.445 14.4569 102.723C14.0392 102.999 13.5577 103.136 13.0123 103.136C12.5918 103.136 12.2551 103.067 12.0023 102.928C11.7495 102.786 11.5549 102.625 11.4185 102.446C11.2821 102.264 11.177 102.114 11.1032 101.994H11.0179V105.455H10.0123ZM11.0009 99.7273C11.0009 100.222 11.0733 100.658 11.2182 101.036C11.3631 101.411 11.5748 101.705 11.8532 101.918C12.1316 102.128 12.4725 102.233 12.8759 102.233C13.2963 102.233 13.6472 102.122 13.9284 101.901C14.2125 101.676 14.4256 101.375 14.5676 100.997C14.7125 100.616 14.785 100.193 14.785 99.7273C14.785 99.267 14.714 98.8523 14.5719 98.483C14.4327 98.1108 14.2211 97.8168 13.937 97.6009C13.6557 97.3821 13.302 97.2727 12.8759 97.2727C12.4668 97.2727 12.123 97.3764 11.8446 97.5838C11.5662 97.7884 11.356 98.0753 11.214 98.4446C11.0719 98.8111 11.0009 99.2386 11.0009 99.7273ZM18.3304 101.517L21.4838 96.4545H22.6429V103H21.6373V97.9375L18.5009 103H17.3248V96.4545H18.3304V101.517ZM27.8599 103V96.4545H33.0076V103H32.002V97.392H28.8656V103H27.8599ZM37.5034 103.136C36.9125 103.136 36.394 102.996 35.948 102.714C35.5048 102.433 35.1582 102.04 34.9082 101.534C34.661 101.028 34.5375 100.437 34.5375 99.7614C34.5375 99.0795 34.661 98.4844 34.9082 97.9759C35.1582 97.4673 35.5048 97.0724 35.948 96.7912C36.394 96.5099 36.9125 96.3693 37.5034 96.3693C38.0943 96.3693 38.6113 96.5099 39.0545 96.7912C39.5005 97.0724 39.8471 97.4673 40.0943 97.9759C40.3443 98.4844 40.4693 99.0795 40.4693 99.7614C40.4693 100.437 40.3443 101.028 40.0943 101.534C39.8471 102.04 39.5005 102.433 39.0545 102.714C38.6113 102.996 38.0943 103.136 37.5034 103.136ZM37.5034 102.233C37.9522 102.233 38.3216 102.118 38.6113 101.888C38.9011 101.658 39.1156 101.355 39.2548 100.98C39.394 100.605 39.4636 100.199 39.4636 99.7614C39.4636 99.3239 39.394 98.9162 39.2548 98.5384C39.1156 98.1605 38.9011 97.8551 38.6113 97.6222C38.3216 97.3892 37.9522 97.2727 37.5034 97.2727C37.0545 97.2727 36.6852 97.3892 36.3954 97.6222C36.1056 97.8551 35.8912 98.1605 35.752 98.5384C35.6127 98.9162 35.5431 99.3239 35.5431 99.7614C35.5431 100.199 35.6127 100.605 35.752 100.98C35.8912 101.355 36.1056 101.658 36.3954 101.888C36.6852 102.118 37.0545 102.233 37.5034 102.233ZM41.3056 104.875V102.062H41.851C41.9846 101.923 42.0996 101.773 42.1962 101.611C42.2928 101.449 42.3766 101.257 42.4476 101.036C42.5215 100.811 42.584 100.538 42.6351 100.217C42.6863 99.8935 42.7317 99.5028 42.7715 99.0455L42.9931 96.4545H47.1522V102.062H48.1578V104.875H47.1522V103H42.3113V104.875H41.3056ZM42.9931 102.062H46.1465V97.392H43.9306L43.7601 99.0455C43.6891 99.7301 43.601 100.328 43.4959 100.839C43.3908 101.351 43.2232 101.759 42.9931 102.062ZM48.7939 104.875V102.062H49.3393C49.4728 101.923 49.5879 101.773 49.6845 101.611C49.7811 101.449 49.8649 101.257 49.9359 101.036C50.0098 100.811 50.0723 100.538 50.1234 100.217C50.1745 99.8935 50.22 99.5028 50.2598 99.0455L50.4814 96.4545H54.6404V102.062H55.6461V104.875H54.6404V103H49.7995V104.875H48.7939ZM50.4814 102.062H53.6348V97.392H51.4189L51.2484 99.0455C51.1774 99.7301 51.0893 100.328 50.9842 100.839C50.8791 101.351 50.7115 101.759 50.4814 102.062ZM59.7253 103.136C59.0946 103.136 58.5506 102.997 58.0932 102.719C57.6387 102.438 57.2878 102.045 57.0407 101.543C56.7963 101.037 56.6742 100.449 56.6742 99.7784C56.6742 99.108 56.7963 98.517 57.0407 98.0057C57.2878 97.4915 57.6316 97.0909 58.0719 96.804C58.5151 96.5142 59.0321 96.3693 59.623 96.3693C59.964 96.3693 60.3006 96.4261 60.633 96.5398C60.9654 96.6534 61.2679 96.8381 61.5407 97.0938C61.8134 97.3466 62.0307 97.6818 62.1926 98.0994C62.3546 98.517 62.4355 99.0312 62.4355 99.642V100.068H57.3901V99.1989H61.4128C61.4128 98.8295 61.339 98.5 61.1912 98.2102C61.0463 97.9205 60.839 97.6918 60.5691 97.5241C60.302 97.3565 59.9867 97.2727 59.623 97.2727C59.2225 97.2727 58.8759 97.3722 58.5833 97.571C58.2935 97.767 58.0705 98.0227 57.9142 98.3381C57.758 98.6534 57.6799 98.9915 57.6799 99.3523V99.9318C57.6799 100.426 57.7651 100.845 57.9355 101.189C58.1088 101.53 58.3489 101.79 58.6557 101.969C58.9625 102.145 59.3191 102.233 59.7253 102.233C59.9895 102.233 60.2282 102.196 60.4412 102.122C60.6571 102.045 60.8432 101.932 60.9995 101.781C61.1557 101.628 61.2765 101.437 61.3617 101.21L62.3333 101.483C62.231 101.812 62.0591 102.102 61.8176 102.352C61.5762 102.599 61.2779 102.793 60.9228 102.932C60.5676 103.068 60.1685 103.136 59.7253 103.136ZM63.9654 105.455V96.4545H64.937V97.4943H65.0563C65.1301 97.3807 65.2324 97.2358 65.3631 97.0597C65.4966 96.8807 65.687 96.7216 65.9341 96.5824C66.1841 96.4403 66.5222 96.3693 66.9483 96.3693C67.4995 96.3693 67.9853 96.5071 68.4057 96.7827C68.8262 97.0582 69.1543 97.4489 69.3901 97.9545C69.6259 98.4602 69.7438 99.0568 69.7438 99.7443C69.7438 100.438 69.6259 101.038 69.3901 101.547C69.1543 102.053 68.8276 102.445 68.41 102.723C67.9924 102.999 67.5108 103.136 66.9654 103.136C66.5449 103.136 66.2083 103.067 65.9554 102.928C65.7026 102.786 65.508 102.625 65.3716 102.446C65.2353 102.264 65.1301 102.114 65.0563 101.994H64.9711V105.455H63.9654ZM64.954 99.7273C64.954 100.222 65.0265 100.658 65.1713 101.036C65.3162 101.411 65.5279 101.705 65.8063 101.918C66.0847 102.128 66.4256 102.233 66.829 102.233C67.2495 102.233 67.6003 102.122 67.8816 101.901C68.1657 101.676 68.3787 101.375 68.5208 100.997C68.6657 100.616 68.7381 100.193 68.7381 99.7273C68.7381 99.267 68.6671 98.8523 68.525 98.483C68.3858 98.1108 68.1742 97.8168 67.8901 97.6009C67.6088 97.3821 67.2551 97.2727 66.829 97.2727C66.4199 97.2727 66.0762 97.3764 65.7978 97.5838C65.5194 97.7884 65.3091 98.0753 65.1671 98.4446C65.025 98.8111 64.954 99.2386 64.954 99.7273ZM70.5993 103L73.2583 99.6761L70.6333 96.4545H71.8265L74.0083 99.25H74.5538V96.4545H75.5595V99.25H76.0879L78.2697 96.4545H79.4629L76.8549 99.6761L79.497 103H78.2868L76.0708 100.188H75.5595V103H74.5538V100.188H74.0424L71.8095 103H70.5993ZM80.9341 103V96.4545H81.9398V99.3011H82.6046L84.9569 96.4545H86.2523L83.6103 99.608L86.2864 103H84.9909L82.8432 100.239H81.9398V103H80.9341ZM89.8542 103.136C89.2235 103.136 88.6795 102.997 88.2221 102.719C87.7676 102.438 87.4167 102.045 87.1696 101.543C86.9252 101.037 86.8031 100.449 86.8031 99.7784C86.8031 99.108 86.9252 98.517 87.1696 98.0057C87.4167 97.4915 87.7605 97.0909 88.2008 96.804C88.644 96.5142 89.161 96.3693 89.752 96.3693C90.0929 96.3693 90.4295 96.4261 90.7619 96.5398C91.0943 96.6534 91.3968 96.8381 91.6696 97.0938C91.9423 97.3466 92.1596 97.6818 92.3216 98.0994C92.4835 98.517 92.5645 99.0312 92.5645 99.642V100.068H87.519V99.1989H91.5417C91.5417 98.8295 91.4679 98.5 91.3201 98.2102C91.1752 97.9205 90.9679 97.6918 90.698 97.5241C90.4309 97.3565 90.1156 97.2727 89.752 97.2727C89.3514 97.2727 89.0048 97.3722 88.7122 97.571C88.4224 97.767 88.1994 98.0227 88.0431 98.3381C87.8869 98.6534 87.8088 98.9915 87.8088 99.3523V99.9318C87.8088 100.426 87.894 100.845 88.0645 101.189C88.2377 101.53 88.4778 101.79 88.7846 101.969C89.0914 102.145 89.448 102.233 89.8542 102.233C90.1184 102.233 90.3571 102.196 90.5701 102.122C90.786 102.045 90.9721 101.932 91.1284 101.781C91.2846 101.628 91.4054 101.437 91.4906 101.21L92.4622 101.483C92.3599 101.812 92.188 102.102 91.9466 102.352C91.7051 102.599 91.4068 102.793 91.0517 102.932C90.6966 103.068 90.2974 103.136 89.8542 103.136ZM97.6056 94.2727H98.867L101.833 101.517H101.935L104.901 94.2727H106.162V103H105.174V96.3693H105.089L102.361 103H101.407L98.6795 96.3693H98.5943V103H97.6056V94.2727ZM110.804 103.136C110.213 103.136 109.695 102.996 109.249 102.714C108.806 102.433 108.459 102.04 108.209 101.534C107.962 101.028 107.838 100.437 107.838 99.7614C107.838 99.0795 107.962 98.4844 108.209 97.9759C108.459 97.4673 108.806 97.0724 109.249 96.7912C109.695 96.5099 110.213 96.3693 110.804 96.3693C111.395 96.3693 111.912 96.5099 112.355 96.7912C112.801 97.0724 113.148 97.4673 113.395 97.9759C113.645 98.4844 113.77 99.0795 113.77 99.7614C113.77 100.437 113.645 101.028 113.395 101.534C113.148 102.04 112.801 102.433 112.355 102.714C111.912 102.996 111.395 103.136 110.804 103.136ZM110.804 102.233C111.253 102.233 111.622 102.118 111.912 101.888C112.202 101.658 112.416 101.355 112.556 100.98C112.695 100.605 112.764 100.199 112.764 99.7614C112.764 99.3239 112.695 98.9162 112.556 98.5384C112.416 98.1605 112.202 97.8551 111.912 97.6222C111.622 97.3892 111.253 97.2727 110.804 97.2727C110.355 97.2727 109.986 97.3892 109.696 97.6222C109.406 97.8551 109.192 98.1605 109.053 98.5384C108.914 98.9162 108.844 99.3239 108.844 99.7614C108.844 100.199 108.914 100.605 109.053 100.98C109.192 101.355 109.406 101.658 109.696 101.888C109.986 102.118 110.355 102.233 110.804 102.233ZM117.964 103.136C117.351 103.136 116.822 102.991 116.379 102.702C115.936 102.412 115.595 102.013 115.356 101.504C115.118 100.996 114.998 100.415 114.998 99.7614C114.998 99.0966 115.121 98.5099 115.365 98.0014C115.612 97.4901 115.956 97.0909 116.396 96.804C116.839 96.5142 117.356 96.3693 117.947 96.3693C118.407 96.3693 118.822 96.4545 119.192 96.625C119.561 96.7955 119.863 97.0341 120.099 97.3409C120.335 97.6477 120.481 98.0057 120.538 98.4148H119.532C119.456 98.1165 119.285 97.8523 119.021 97.6222C118.76 97.3892 118.407 97.2727 117.964 97.2727C117.572 97.2727 117.229 97.375 116.933 97.5795C116.64 97.7812 116.412 98.0668 116.247 98.4361C116.085 98.8026 116.004 99.233 116.004 99.7273C116.004 100.233 116.084 100.673 116.243 101.048C116.405 101.423 116.632 101.714 116.925 101.922C117.22 102.129 117.567 102.233 117.964 102.233C118.226 102.233 118.463 102.188 118.676 102.097C118.889 102.006 119.069 101.875 119.217 101.705C119.365 101.534 119.47 101.33 119.532 101.091H120.538C120.481 101.477 120.341 101.825 120.116 102.135C119.895 102.442 119.601 102.686 119.234 102.868C118.871 103.047 118.447 103.136 117.964 103.136ZM122.008 103V96.4545H123.014V99.3011H123.679L126.031 96.4545H127.327L124.684 99.608L127.361 103H126.065L123.917 100.239H123.014V103H122.008ZM130.843 103.136C130.252 103.136 129.734 102.996 129.288 102.714C128.845 102.433 128.498 102.04 128.248 101.534C128.001 101.028 127.877 100.437 127.877 99.7614C127.877 99.0795 128.001 98.4844 128.248 97.9759C128.498 97.4673 128.845 97.0724 129.288 96.7912C129.734 96.5099 130.252 96.3693 130.843 96.3693C131.434 96.3693 131.951 96.5099 132.394 96.7912C132.84 97.0724 133.187 97.4673 133.434 97.9759C133.684 98.4844 133.809 99.0795 133.809 99.7614C133.809 100.437 133.684 101.028 133.434 101.534C133.187 102.04 132.84 102.433 132.394 102.714C131.951 102.996 131.434 103.136 130.843 103.136ZM130.843 102.233C131.292 102.233 131.661 102.118 131.951 101.888C132.241 101.658 132.455 101.355 132.595 100.98C132.734 100.605 132.803 100.199 132.803 99.7614C132.803 99.3239 132.734 98.9162 132.595 98.5384C132.455 98.1605 132.241 97.8551 131.951 97.6222C131.661 97.3892 131.292 97.2727 130.843 97.2727C130.394 97.2727 130.025 97.3892 129.735 97.6222C129.445 97.8551 129.231 98.1605 129.092 98.5384C128.953 98.9162 128.883 99.3239 128.883 99.7614C128.883 100.199 128.953 100.605 129.092 100.98C129.231 101.355 129.445 101.658 129.735 101.888C130.025 102.118 130.394 102.233 130.843 102.233ZM135.344 103V96.4545H138.02C138.725 96.4545 139.285 96.6136 139.699 96.9318C140.114 97.25 140.322 97.6705 140.322 98.1932C140.322 98.5909 140.204 98.8991 139.968 99.1179C139.732 99.3338 139.43 99.4801 139.06 99.5568C139.302 99.5909 139.536 99.6761 139.763 99.8125C139.993 99.9489 140.184 100.136 140.334 100.375C140.485 100.611 140.56 100.901 140.56 101.244C140.56 101.58 140.475 101.879 140.305 102.143C140.134 102.408 139.89 102.616 139.572 102.77C139.253 102.923 138.873 103 138.43 103H135.344ZM136.299 102.08H138.43C138.776 102.08 139.047 101.997 139.243 101.832C139.439 101.668 139.537 101.443 139.537 101.159C139.537 100.821 139.439 100.555 139.243 100.362C139.047 100.166 138.776 100.068 138.43 100.068H136.299V102.08ZM136.299 99.1989H138.02C138.29 99.1989 138.522 99.1619 138.715 99.0881C138.908 99.0114 139.056 98.9034 139.158 98.7642C139.263 98.6222 139.316 98.4545 139.316 98.2614C139.316 97.9858 139.201 97.7699 138.971 97.6136C138.741 97.4545 138.424 97.375 138.02 97.375H136.299V99.1989ZM144.742 103.136C144.128 103.136 143.6 102.991 143.156 102.702C142.713 102.412 142.372 102.013 142.134 101.504C141.895 100.996 141.776 100.415 141.776 99.7614C141.776 99.0966 141.898 98.5099 142.142 98.0014C142.389 97.4901 142.733 97.0909 143.173 96.804C143.617 96.5142 144.134 96.3693 144.725 96.3693C145.185 96.3693 145.6 96.4545 145.969 96.625C146.338 96.7955 146.641 97.0341 146.877 97.3409C147.112 97.6477 147.259 98.0057 147.316 98.4148H146.31C146.233 98.1165 146.063 97.8523 145.798 97.6222C145.537 97.3892 145.185 97.2727 144.742 97.2727C144.35 97.2727 144.006 97.375 143.71 97.5795C143.418 97.7812 143.189 98.0668 143.024 98.4361C142.862 98.8026 142.781 99.233 142.781 99.7273C142.781 100.233 142.861 100.673 143.02 101.048C143.182 101.423 143.409 101.714 143.702 101.922C143.997 102.129 144.344 102.233 144.742 102.233C145.003 102.233 145.24 102.188 145.453 102.097C145.666 102.006 145.847 101.875 145.994 101.705C146.142 101.534 146.247 101.33 146.31 101.091H147.316C147.259 101.477 147.118 101.825 146.894 102.135C146.672 102.442 146.378 102.686 146.012 102.868C145.648 103.047 145.225 103.136 144.742 103.136ZM148.786 103V96.4545H149.791V99.3011H150.456L152.808 96.4545H154.104L151.462 99.608L154.138 103H152.843L150.695 100.239H149.791V103H148.786ZM157.621 103.136C157.03 103.136 156.511 102.996 156.065 102.714C155.622 102.433 155.275 102.04 155.025 101.534C154.778 101.028 154.655 100.437 154.655 99.7614C154.655 99.0795 154.778 98.4844 155.025 97.9759C155.275 97.4673 155.622 97.0724 156.065 96.7912C156.511 96.5099 157.03 96.3693 157.621 96.3693C158.211 96.3693 158.729 96.5099 159.172 96.7912C159.618 97.0724 159.964 97.4673 160.211 97.9759C160.461 98.4844 160.586 99.0795 160.586 99.7614C160.586 100.437 160.461 101.028 160.211 101.534C159.964 102.04 159.618 102.433 159.172 102.714C158.729 102.996 158.211 103.136 157.621 103.136ZM157.621 102.233C158.069 102.233 158.439 102.118 158.729 101.888C159.018 101.658 159.233 101.355 159.372 100.98C159.511 100.605 159.581 100.199 159.581 99.7614C159.581 99.3239 159.511 98.9162 159.372 98.5384C159.233 98.1605 159.018 97.8551 158.729 97.6222C158.439 97.3892 158.069 97.2727 157.621 97.2727C157.172 97.2727 156.802 97.3892 156.513 97.6222C156.223 97.8551 156.008 98.1605 155.869 98.5384C155.73 98.9162 155.66 99.3239 155.66 99.7614C155.66 100.199 155.73 100.605 155.869 100.98C156.008 101.355 156.223 101.658 156.513 101.888C156.802 102.118 157.172 102.233 157.621 102.233ZM166.161 96.4545V97.392H163.127V103H162.122V96.4545H166.161ZM169.949 103.136C169.358 103.136 168.839 102.996 168.393 102.714C167.95 102.433 167.604 102.04 167.354 101.534C167.106 101.028 166.983 100.437 166.983 99.7614C166.983 99.0795 167.106 98.4844 167.354 97.9759C167.604 97.4673 167.95 97.0724 168.393 96.7912C168.839 96.5099 169.358 96.3693 169.949 96.3693C170.54 96.3693 171.057 96.5099 171.5 96.7912C171.946 97.0724 172.292 97.4673 172.54 97.9759C172.79 98.4844 172.915 99.0795 172.915 99.7614C172.915 100.437 172.79 101.028 172.54 101.534C172.292 102.04 171.946 102.433 171.5 102.714C171.057 102.996 170.54 103.136 169.949 103.136ZM169.949 102.233C170.398 102.233 170.767 102.118 171.057 101.888C171.346 101.658 171.561 101.355 171.7 100.98C171.839 100.605 171.909 100.199 171.909 99.7614C171.909 99.3239 171.839 98.9162 171.7 98.5384C171.561 98.1605 171.346 97.8551 171.057 97.6222C170.767 97.3892 170.398 97.2727 169.949 97.2727C169.5 97.2727 169.131 97.3892 168.841 97.6222C168.551 97.8551 168.336 98.1605 168.197 98.5384C168.058 98.9162 167.988 99.3239 167.988 99.7614C167.988 100.199 168.058 100.605 168.197 100.98C168.336 101.355 168.551 101.658 168.841 101.888C169.131 102.118 169.5 102.233 169.949 102.233ZM184.49 94.2727V103H183.433V95.2102H179.035V103H177.978V94.2727H184.49ZM189.144 103.136C188.553 103.136 188.035 102.996 187.589 102.714C187.145 102.433 186.799 102.04 186.549 101.534C186.302 101.028 186.178 100.437 186.178 99.7614C186.178 99.0795 186.302 98.4844 186.549 97.9759C186.799 97.4673 187.145 97.0724 187.589 96.7912C188.035 96.5099 188.553 96.3693 189.144 96.3693C189.735 96.3693 190.252 96.5099 190.695 96.7912C191.141 97.0724 191.488 97.4673 191.735 97.9759C191.985 98.4844 192.11 99.0795 192.11 99.7614C192.11 100.437 191.985 101.028 191.735 101.534C191.488 102.04 191.141 102.433 190.695 102.714C190.252 102.996 189.735 103.136 189.144 103.136ZM189.144 102.233C189.593 102.233 189.962 102.118 190.252 101.888C190.542 101.658 190.756 101.355 190.895 100.98C191.035 100.605 191.104 100.199 191.104 99.7614C191.104 99.3239 191.035 98.9162 190.895 98.5384C190.756 98.1605 190.542 97.8551 190.252 97.6222C189.962 97.3892 189.593 97.2727 189.144 97.2727C188.695 97.2727 188.326 97.3892 188.036 97.6222C187.746 97.8551 187.532 98.1605 187.393 98.5384C187.253 98.9162 187.184 99.3239 187.184 99.7614C187.184 100.199 187.253 100.605 187.393 100.98C187.532 101.355 187.746 101.658 188.036 101.888C188.326 102.118 188.695 102.233 189.144 102.233ZM193.066 103V102.062H193.304C193.5 102.062 193.664 102.024 193.794 101.947C193.925 101.868 194.03 101.73 194.11 101.534C194.192 101.335 194.254 101.06 194.297 100.707C194.343 100.352 194.375 99.9006 194.395 99.3523L194.514 96.4545H198.878V103H197.872V97.392H195.469L195.367 99.7273C195.344 100.264 195.296 100.737 195.222 101.146C195.151 101.553 195.041 101.893 194.894 102.169C194.749 102.445 194.556 102.652 194.314 102.791C194.073 102.93 193.77 103 193.406 103H193.066ZM201.729 101.517L204.882 96.4545H206.041V103H205.036V97.9375L201.899 103H200.723V96.4545H201.729V101.517ZM206.993 97.392V96.4545H212.311V97.392H210.163V103H209.157V97.392H206.993ZM216.182 103.136C215.552 103.136 215.008 102.997 214.55 102.719C214.096 102.438 213.745 102.045 213.498 101.543C213.253 101.037 213.131 100.449 213.131 99.7784C213.131 99.108 213.253 98.517 213.498 98.0057C213.745 97.4915 214.089 97.0909 214.529 96.804C214.972 96.5142 215.489 96.3693 216.08 96.3693C216.421 96.3693 216.758 96.4261 217.09 96.5398C217.422 96.6534 217.725 96.8381 217.998 97.0938C218.27 97.3466 218.488 97.6818 218.65 98.0994C218.812 98.517 218.893 99.0312 218.893 99.642V100.068H213.847V99.1989H217.87C217.87 98.8295 217.796 98.5 217.648 98.2102C217.503 97.9205 217.296 97.6918 217.026 97.5241C216.759 97.3565 216.444 97.2727 216.08 97.2727C215.68 97.2727 215.333 97.3722 215.04 97.571C214.751 97.767 214.528 98.0227 214.371 98.3381C214.215 98.6534 214.137 98.9915 214.137 99.3523V99.9318C214.137 100.426 214.222 100.845 214.393 101.189C214.566 101.53 214.806 101.79 215.113 101.969C215.42 102.145 215.776 102.233 216.182 102.233C216.447 102.233 216.685 102.196 216.898 102.122C217.114 102.045 217.3 101.932 217.456 101.781C217.613 101.628 217.733 101.437 217.819 101.21L218.79 101.483C218.688 101.812 218.516 102.102 218.275 102.352C218.033 102.599 217.735 102.793 217.38 102.932C217.025 103.068 216.626 103.136 216.182 103.136ZM220.997 96.4545L222.565 99.1307L224.133 96.4545H225.292L223.178 99.7273L225.292 103H224.133L222.565 100.46L220.997 103H219.838L221.917 99.7273L219.838 96.4545H220.997ZM228.653 103.153C228.238 103.153 227.862 103.075 227.524 102.919C227.186 102.76 226.917 102.531 226.719 102.233C226.52 101.932 226.42 101.568 226.42 101.142C226.42 100.767 226.494 100.463 226.642 100.23C226.79 99.9943 226.987 99.8097 227.234 99.6761C227.481 99.5426 227.754 99.4432 228.052 99.3778C228.354 99.3097 228.656 99.2557 228.96 99.2159C229.358 99.1648 229.68 99.1264 229.927 99.1009C230.177 99.0724 230.359 99.0256 230.473 98.9602C230.589 98.8949 230.648 98.7812 230.648 98.6193V98.5852C230.648 98.1648 230.532 97.8381 230.302 97.6051C230.075 97.3722 229.73 97.2557 229.267 97.2557C228.787 97.2557 228.41 97.3608 228.138 97.571C227.865 97.7812 227.673 98.0057 227.562 98.2443L226.608 97.9034C226.778 97.5057 227.006 97.196 227.29 96.9744C227.577 96.75 227.889 96.5937 228.227 96.5057C228.568 96.4148 228.903 96.3693 229.233 96.3693C229.443 96.3693 229.684 96.3949 229.957 96.446C230.233 96.4943 230.498 96.5952 230.754 96.7486C231.013 96.902 231.227 97.1335 231.398 97.4432C231.568 97.7528 231.653 98.1676 231.653 98.6875V103H230.648V102.114H230.596C230.528 102.256 230.415 102.408 230.256 102.57C230.096 102.732 229.885 102.869 229.621 102.983C229.356 103.097 229.034 103.153 228.653 103.153ZM228.807 102.25C229.204 102.25 229.54 102.172 229.812 102.016C230.088 101.859 230.295 101.658 230.434 101.411C230.577 101.163 230.648 100.903 230.648 100.631V99.7102C230.605 99.7614 230.511 99.8082 230.366 99.8509C230.224 99.8906 230.059 99.9261 229.872 99.9574C229.687 99.9858 229.507 100.011 229.331 100.034C229.157 100.054 229.017 100.071 228.909 100.085C228.648 100.119 228.403 100.175 228.176 100.251C227.952 100.325 227.77 100.437 227.631 100.588C227.494 100.736 227.426 100.937 227.426 101.193C227.426 101.543 227.555 101.807 227.814 101.986C228.075 102.162 228.406 102.25 228.807 102.25Z" fill="white"/>
<path d="M116.174 13.2848C116.077 13.379 115.923 13.379 115.826 13.2848L109.792 7.4289C109.691 7.3307 109.691 7.16831 109.792 7.07011L115.826 1.21418C115.923 1.12004 116.077 1.12004 116.174 1.21418L122.208 7.07011C122.309 7.16831 122.309 7.3307 122.208 7.4289L116.174 13.2848ZM125.705 22.5353C125.608 22.6295 125.454 22.6295 125.357 22.5353L119.323 16.6794C119.222 16.5812 119.222 16.4188 119.323 16.3206L125.357 10.4647C125.454 10.3705 125.608 10.3705 125.705 10.4647L131.738 16.3206C131.839 16.4188 131.839 16.5812 131.738 16.6794L125.705 22.5353ZM106.643 22.5353C106.546 22.6295 106.392 22.6295 106.295 22.5353L100.262 16.6794C100.161 16.5812 100.161 16.4188 100.262 16.3206L106.295 10.4647C106.392 10.3705 106.546 10.3705 106.643 10.4647L112.677 16.3206C112.778 16.4188 112.778 16.5812 112.677 16.6794L106.643 22.5353ZM116.174 31.7858C116.077 31.88 115.923 31.88 115.826 31.7858L109.792 25.9299C109.691 25.8317 109.691 25.6693 109.792 25.5711L115.826 19.7152C115.923 19.621 116.077 19.621 116.174 19.7152L122.208 25.5711C122.309 25.6693 122.309 25.8317 122.208 25.9299L116.174 31.7858Z" fill="white" stroke="white" stroke-width="1.5"/>
</svg>
