<svg width="244" height="42" viewBox="0 0 244 42" fill="none" xmlns="http://www.w3.org/2000/svg">
<path d="M11.8232 10.2374L11.2929 9.70711L11.8232 10.2374C11.9209 10.1398 12.0791 10.1398 12.1768 10.2374L12.7038 9.7104L12.1768 10.2374L16.0349 14.0956L16.5653 13.5653L16.0349 14.0956C16.1326 14.1932 16.1326 14.3515 16.0349 14.4491L16.5653 14.9795L16.0349 14.4491L12.1768 18.3073C12.0791 18.4049 11.9209 18.4049 11.8232 18.3073L7.96507 14.4491C7.86744 14.3515 7.86744 14.1932 7.96507 14.0956L11.8232 10.2374ZM18.9044 25.0349C18.8068 25.1326 18.6485 25.1326 18.5509 25.0349L14.6927 21.1768C14.5951 21.0791 14.5951 20.9209 14.6927 20.8232L18.5509 16.9651C18.6485 16.8674 18.8068 16.8674 18.9044 16.9651L22.7626 20.8232C22.8602 20.9209 22.8602 21.0791 22.7626 21.1768L18.9044 25.0349ZM5.44914 25.0349L5.97947 25.5653L5.44914 25.0349C5.35151 25.1326 5.19322 25.1326 5.09559 25.0349L1.23744 21.1768L0.707107 21.7071L1.23744 21.1768C1.13981 21.0791 1.13981 20.9209 1.23744 20.8232L0.707107 20.2929L1.23744 20.8232L5.09559 16.9651C5.19322 16.8674 5.35151 16.8674 5.44914 16.9651L9.30729 20.8232C9.40493 20.9209 9.40493 21.0791 9.30729 21.1768L5.44914 25.0349ZM12.1768 31.7626C12.0791 31.8602 11.9209 31.8602 11.8232 31.7626L7.96507 27.9044C7.86744 27.8068 7.86744 27.6485 7.96507 27.5509L11.8232 23.6927C11.9209 23.5951 12.0791 23.5951 12.1768 23.6927L16.0349 27.5509C16.1326 27.6485 16.1326 27.8068 16.0349 27.9044L12.1768 31.7626Z" fill="black" stroke="black" stroke-width="1.5"/>
<path d="M49.1841 16.952C49.1361 16.872 48.9681 16.752 48.6801 16.592C48.3921 16.416 48.0321 16.232 47.6001 16.04C47.1681 15.848 46.6961 15.68 46.1841 15.536C45.6721 15.392 45.1601 15.32 44.6481 15.32C43.9761 15.32 43.4561 15.44 43.0881 15.68C42.7201 15.904 42.5361 16.256 42.5361 16.736C42.5361 17.12 42.6721 17.424 42.9441 17.648C43.2321 17.872 43.6401 18.072 44.1681 18.248C44.6961 18.408 45.3441 18.6 46.1121 18.824C47.2001 19.112 48.1441 19.464 48.9441 19.88C49.7441 20.28 50.3521 20.8 50.7681 21.44C51.2001 22.08 51.4161 22.928 51.4161 23.984C51.4161 24.944 51.2401 25.76 50.8881 26.432C50.5361 27.088 50.0561 27.624 49.4481 28.04C48.8561 28.44 48.1761 28.736 47.4081 28.928C46.6401 29.104 45.8481 29.192 45.0321 29.192C44.2001 29.192 43.3441 29.112 42.4641 28.952C41.6001 28.776 40.7681 28.536 39.9681 28.232C39.1681 27.912 38.4321 27.528 37.7601 27.08L39.4881 23.648C39.5521 23.728 39.7601 23.88 40.1121 24.104C40.4641 24.312 40.8961 24.536 41.4081 24.776C41.9361 25 42.5201 25.2 43.1601 25.376C43.8001 25.552 44.4481 25.64 45.1041 25.64C45.8081 25.64 46.3281 25.528 46.6641 25.304C47.0161 25.08 47.1921 24.768 47.1921 24.368C47.1921 23.936 47.0081 23.6 46.6401 23.36C46.2881 23.12 45.8001 22.904 45.1761 22.712C44.5681 22.52 43.8641 22.304 43.0641 22.064C42.0241 21.744 41.1601 21.384 40.4721 20.984C39.8001 20.584 39.2961 20.096 38.9601 19.52C38.6401 18.944 38.4801 18.224 38.4801 17.36C38.4801 16.16 38.7601 15.152 39.3201 14.336C39.8961 13.504 40.6641 12.88 41.6241 12.464C42.5841 12.032 43.6321 11.816 44.7681 11.816C45.5681 11.816 46.3361 11.912 47.0721 12.104C47.8241 12.296 48.5201 12.536 49.1601 12.824C49.8161 13.112 50.4001 13.4 50.9121 13.688L49.1841 16.952ZM66.7098 15.416H61.5258V29H57.5898V15.416H52.3818V11.96H66.7098V15.416ZM75.952 29.144C74.592 29.144 73.432 28.92 72.472 28.472C71.512 28.008 70.728 27.384 70.12 26.6C69.528 25.8 69.088 24.896 68.8 23.888C68.528 22.864 68.392 21.792 68.392 20.672V11.96H72.328V20.672C72.328 21.312 72.392 21.936 72.52 22.544C72.648 23.136 72.856 23.664 73.144 24.128C73.432 24.592 73.8 24.96 74.248 25.232C74.712 25.504 75.28 25.64 75.952 25.64C76.64 25.64 77.216 25.504 77.68 25.232C78.144 24.944 78.512 24.568 78.784 24.104C79.056 23.624 79.256 23.088 79.384 22.496C79.512 21.904 79.576 21.296 79.576 20.672V11.96H83.512V20.672C83.512 21.856 83.36 22.96 83.056 23.984C82.768 25.008 82.32 25.912 81.712 26.696C81.104 27.464 80.32 28.064 79.36 28.496C78.416 28.928 77.28 29.144 75.952 29.144ZM86.5617 29V11.96H92.9217C94.7937 11.96 96.3537 12.344 97.6017 13.112C98.8657 13.864 99.8177 14.888 100.458 16.184C101.098 17.464 101.418 18.888 101.418 20.456C101.418 22.184 101.066 23.688 100.362 24.968C99.6577 26.248 98.6657 27.24 97.3857 27.944C96.1217 28.648 94.6337 29 92.9217 29H86.5617ZM97.4097 20.456C97.4097 19.464 97.2337 18.592 96.8817 17.84C96.5297 17.072 96.0177 16.48 95.3457 16.064C94.6737 15.632 93.8657 15.416 92.9217 15.416H90.4977V25.544H92.9217C93.8817 25.544 94.6897 25.328 95.3457 24.896C96.0177 24.448 96.5297 23.84 96.8817 23.072C97.2337 22.288 97.4097 21.416 97.4097 20.456ZM115.717 25.544V29H103.741V11.96H115.501V15.416H107.677V18.728H114.397V21.92H107.677V25.544H115.717ZM122.045 19.256V29H118.109V11.96H121.229L129.125 21.992V11.96H133.061V29H129.845L122.045 19.256ZM149.304 15.416H144.12V29H140.184V15.416H134.976V11.96H149.304V15.416ZM160.896 11.984H164.52L166.296 17.432L168.072 11.984H171.72L168.816 19.904L170.544 24.44L174.816 11.96H179.112L172.464 29H169.056L166.296 22.328L163.56 29H160.128L153.504 11.96H157.776L162.072 24.44L163.752 19.904L160.896 11.984ZM187.401 29.144C186.121 29.144 184.961 28.904 183.921 28.424C182.897 27.928 182.009 27.272 181.257 26.456C180.521 25.624 179.953 24.696 179.553 23.672C179.153 22.632 178.953 21.56 178.953 20.456C178.953 19.32 179.161 18.24 179.577 17.216C180.009 16.192 180.601 15.28 181.353 14.48C182.121 13.664 183.025 13.024 184.065 12.56C185.105 12.096 186.241 11.864 187.473 11.864C188.737 11.864 189.881 12.112 190.905 12.608C191.945 13.088 192.833 13.744 193.569 14.576C194.321 15.408 194.897 16.344 195.297 17.384C195.697 18.408 195.897 19.456 195.897 20.528C195.897 21.664 195.689 22.744 195.273 23.768C194.857 24.792 194.265 25.712 193.497 26.528C192.729 27.328 191.825 27.968 190.785 28.448C189.761 28.912 188.633 29.144 187.401 29.144ZM182.961 20.504C182.961 21.16 183.057 21.8 183.249 22.424C183.441 23.032 183.721 23.576 184.089 24.056C184.473 24.536 184.945 24.92 185.505 25.208C186.065 25.496 186.705 25.64 187.425 25.64C188.177 25.64 188.833 25.496 189.393 25.208C189.953 24.904 190.417 24.504 190.785 24.008C191.153 23.512 191.425 22.96 191.601 22.352C191.793 21.728 191.889 21.096 191.889 20.456C191.889 19.8 191.793 19.168 191.601 18.56C191.409 17.952 191.121 17.408 190.737 16.928C190.353 16.432 189.881 16.048 189.321 15.776C188.761 15.504 188.129 15.368 187.425 15.368C186.673 15.368 186.017 15.512 185.457 15.8C184.913 16.088 184.449 16.48 184.065 16.976C183.697 17.456 183.417 18.008 183.225 18.632C183.049 19.24 182.961 19.864 182.961 20.504ZM198.171 29V11.96H205.851C206.651 11.96 207.387 12.128 208.059 12.464C208.747 12.784 209.339 13.224 209.835 13.784C210.331 14.328 210.715 14.944 210.987 15.632C211.275 16.32 211.419 17.016 211.419 17.72C211.419 18.424 211.307 19.096 211.083 19.736C210.859 20.36 210.539 20.928 210.123 21.44C209.707 21.936 209.211 22.344 208.635 22.664L212.379 29H208.035L204.771 23.504H202.107V29H198.171ZM202.107 20.072H205.707C206.027 20.072 206.307 19.976 206.547 19.784C206.803 19.576 207.011 19.296 207.171 18.944C207.331 18.592 207.411 18.184 207.411 17.72C207.411 17.256 207.315 16.856 207.123 16.52C206.947 16.168 206.723 15.896 206.451 15.704C206.179 15.512 205.891 15.416 205.587 15.416H202.107V20.072ZM214.249 29V11.96H218.185V19.304L224.425 11.96H228.841L222.457 19.568L229.273 29H224.761L219.961 22.16L218.185 23.984V29H214.249ZM240.762 16.952C240.714 16.872 240.546 16.752 240.258 16.592C239.97 16.416 239.61 16.232 239.178 16.04C238.746 15.848 238.274 15.68 237.762 15.536C237.25 15.392 236.738 15.32 236.226 15.32C235.554 15.32 235.034 15.44 234.666 15.68C234.298 15.904 234.114 16.256 234.114 16.736C234.114 17.12 234.25 17.424 234.522 17.648C234.81 17.872 235.218 18.072 235.746 18.248C236.274 18.408 236.922 18.6 237.69 18.824C238.778 19.112 239.722 19.464 240.522 19.88C241.322 20.28 241.93 20.8 242.346 21.44C242.778 22.08 242.994 22.928 242.994 23.984C242.994 24.944 242.818 25.76 242.466 26.432C242.114 27.088 241.634 27.624 241.026 28.04C240.434 28.44 239.754 28.736 238.986 28.928C238.218 29.104 237.426 29.192 236.61 29.192C235.778 29.192 234.922 29.112 234.042 28.952C233.178 28.776 232.346 28.536 231.546 28.232C230.746 27.912 230.01 27.528 229.338 27.08L231.066 23.648C231.13 23.728 231.338 23.88 231.69 24.104C232.042 24.312 232.474 24.536 232.986 24.776C233.514 25 234.098 25.2 234.738 25.376C235.378 25.552 236.026 25.64 236.682 25.64C237.386 25.64 237.906 25.528 238.242 25.304C238.594 25.08 238.77 24.768 238.77 24.368C238.77 23.936 238.586 23.6 238.218 23.36C237.866 23.12 237.378 22.904 236.754 22.712C236.146 22.52 235.442 22.304 234.642 22.064C233.602 21.744 232.738 21.384 232.05 20.984C231.378 20.584 230.874 20.096 230.538 19.52C230.218 18.944 230.058 18.224 230.058 17.36C230.058 16.16 230.338 15.152 230.898 14.336C231.474 13.504 232.242 12.88 233.202 12.464C234.162 12.032 235.21 11.816 236.346 11.816C237.146 11.816 237.914 11.912 238.65 12.104C239.402 12.296 240.098 12.536 240.738 12.824C241.394 13.112 241.978 13.4 242.49 13.688L240.762 16.952Z" fill="black"/>
</svg>
